<svg width="18" height="18" viewBox="0 0 18 18" fill="none" xmlns="http://www.w3.org/2000/svg">
<g clip-path="url(#clip0)">
<path d="M12.4464 1.11169H2.03555C0.913008 1.11169 0 2.0247 0 3.14724V12.2703C0 12.7024 0.488637 12.9459 0.833555 12.6995L3.73289 10.631C3.97617 10.4576 4.26234 10.3659 4.56117 10.3659H10.9382C12.0607 10.3659 12.9737 9.45287 12.9737 8.33033V1.63904C12.9737 1.34794 12.7375 1.11169 12.4464 1.11169ZM9.88488 7.49994H3.79195C3.50086 7.49994 3.26461 7.26404 3.26461 6.97259C3.26461 6.6815 3.50086 6.44525 3.79195 6.44525H9.88488C10.176 6.44525 10.4122 6.6815 10.4122 6.97259C10.4122 7.26404 10.176 7.49994 9.88488 7.49994ZM9.88488 5.039H3.79195C3.50086 5.039 3.26461 4.8031 3.26461 4.51165C3.26461 4.22056 3.50086 3.98431 3.79195 3.98431H9.88488C10.176 3.98431 10.4122 4.22056 10.4122 4.51165C10.4122 4.8031 10.176 5.039 9.88488 5.039Z" fill="#6ABB00"/>
<path d="M17.9996 7.23768V16.3604C17.9996 16.7895 17.5134 17.0378 17.166 16.7896L14.2667 14.7214C14.0234 14.5481 13.7372 14.4563 13.4384 14.4563H7.06142C5.93888 14.4563 5.02588 13.543 5.02588 12.4204V11.4206H10.9377C12.6418 11.4206 14.028 10.0344 14.028 8.33034V5.20178H15.964C17.0866 5.20178 17.9996 6.11514 17.9996 7.23768Z" fill="#6ABB00"/>
</g>
<defs>
<clipPath id="clip0">
<rect width="18" height="18" fill="white"/>
</clipPath>
</defs>
</svg>
