<svg width="18" height="18" viewBox="0 0 18 18" fill="none" xmlns="http://www.w3.org/2000/svg">
<path d="M9.2779 4.13721C8.72398 4.99017 7.81842 6.59786 7.63965 8.2225H10.9066C10.7293 6.59456 9.82926 4.98943 9.2779 4.13721Z" fill="#6ABB00"/>
<path d="M4.25879 8.2224H6.53041C6.6871 6.51022 7.52645 4.86501 8.15026 3.85132C6.08167 4.32505 4.49346 6.07326 4.25879 8.2224Z" fill="#6ABB00"/>
<path d="M10.4043 3.85034C11.0248 4.86404 11.8605 6.50963 12.0164 8.22251H14.2994C14.0648 6.07193 12.4747 4.32298 10.4043 3.85034Z" fill="#6ABB00"/>
<path d="M7.63965 9.32593C7.81768 10.9535 8.72285 12.5594 9.27678 13.4108C9.82775 12.5579 10.7285 10.9502 10.9062 9.32593H7.63965Z" fill="#6ABB00"/>
<path d="M6.53041 9.32593H4.25879C4.49346 11.4747 6.08167 13.2229 8.15023 13.697C7.52645 12.6833 6.6871 11.0381 6.53041 9.32593Z" fill="#6ABB00"/>
<path d="M15.4191 2.58093C13.7547 0.916594 11.5419 0 9.18795 0C6.8343 0 4.62157 0.916594 2.9572 2.58093C1.53415 4.00363 0.634852 5.8872 0.424828 7.88477C0.22732 9.76391 0.642937 11.6721 1.5963 13.2887L0 18L4.71132 16.4033C6.32784 17.3571 8.2357 17.7723 10.1148 17.5748C12.1124 17.3648 13.996 16.4655 15.4191 15.0428C17.0834 13.3784 18 11.1653 18 8.81167C18 6.45803 17.0834 4.24529 15.4191 2.58093ZM9.27918 14.9277C5.88611 14.9277 3.12567 12.1672 3.12567 8.77416C3.12567 5.38109 5.88611 2.62065 9.27918 2.62065C12.6722 2.62065 15.4327 5.38109 15.4327 8.77416C15.4327 12.1672 12.6722 14.9277 9.27918 14.9277Z" fill="#6ABB00"/>
<path d="M12.0164 9.32593C11.8605 11.0385 11.0248 12.6844 10.4043 13.6977C12.4747 13.2251 14.0648 11.4762 14.2994 9.32593H12.0164Z" fill="#6ABB00"/>
</svg>
