<svg width="30" height="30" viewBox="0 0 30 30" fill="none" xmlns="http://www.w3.org/2000/svg">
<g clip-path="url(#clip0)">
<path d="M11 19.3097L12.5238 10.7383H14.9048L13.4286 19.3097H11Z" fill="#3C58BF"/>
<path d="M11 19.3097L12.9524 10.7383H14.9048L13.4286 19.3097H11Z" fill="#293688"/>
<path d="M22.0474 10.8333C21.5712 10.6429 20.8093 10.4524 19.857 10.4524C17.476 10.4524 15.7617 11.6429 15.7617 13.3572C15.7617 14.6429 16.9522 15.3095 17.9046 15.7381C18.857 16.1667 19.1427 16.4524 19.1427 16.8333C19.1427 17.4048 18.3808 17.6905 17.7141 17.6905C16.7617 17.6905 16.2379 17.5476 15.4284 17.2143L15.0951 17.0714L14.7617 19.0238C15.3331 19.2619 16.3808 19.5 17.476 19.5C19.9998 19.5 21.6665 18.3095 21.6665 16.5C21.6665 15.5 21.0474 14.7381 19.6189 14.1191C18.7617 13.6905 18.2379 13.4524 18.2379 13.0238C18.2379 12.6429 18.6665 12.2619 19.6189 12.2619C20.4284 12.2619 20.9998 12.4048 21.4284 12.5952L21.6665 12.6905L22.0474 10.8333Z" fill="#3C58BF"/>
<path d="M22.0474 10.8333C21.5712 10.6429 20.8093 10.4524 19.857 10.4524C17.476 10.4524 16.1903 11.6429 16.1903 13.3572C16.1903 14.6429 16.9522 15.3095 17.9046 15.7381C18.857 16.1667 19.1427 16.4524 19.1427 16.8333C19.1427 17.4048 18.3808 17.6905 17.7141 17.6905C16.7617 17.6905 16.2379 17.5476 15.4284 17.2143L15.0951 17.0714L14.7617 19.0238C15.3331 19.2619 16.3808 19.5 17.476 19.5C19.9998 19.5 21.6665 18.3095 21.6665 16.5C21.6665 15.5 21.0474 14.7381 19.6189 14.1191C18.7617 13.6905 18.2379 13.4524 18.2379 13.0238C18.2379 12.6429 18.6665 12.2619 19.6189 12.2619C20.4284 12.2619 20.9998 12.4048 21.4284 12.5952L21.6665 12.6905L22.0474 10.8333Z" fill="#293688"/>
<path d="M26.1415 10.7383C25.5701 10.7383 25.1415 10.7859 24.9034 11.3573L21.332 19.3097H23.9035L24.3796 17.8811H27.4272L27.713 19.3097H29.9987L27.9987 10.7383H26.1415ZM25.0463 16.4526C25.1892 16.024 25.9987 13.9288 25.9987 13.9288C25.9987 13.9288 26.1892 13.4049 26.332 13.0716L26.4749 13.8811C26.4749 13.8811 26.9511 16.024 27.0463 16.5002H25.0463V16.4526Z" fill="#3C58BF"/>
<path d="M26.713 10.7383C26.1415 10.7383 25.713 10.7859 25.4749 11.3573L21.332 19.3097H23.9035L24.3796 17.8811H27.4272L27.713 19.3097H29.9987L27.9987 10.7383H26.713ZM25.0463 16.4526C25.2368 15.9764 25.9987 13.9288 25.9987 13.9288C25.9987 13.9288 26.1892 13.4049 26.332 13.0716L26.4749 13.8811C26.4749 13.8811 26.9511 16.024 27.0463 16.5002H25.0463V16.4526Z" fill="#293688"/>
<path d="M6.62026 16.738L6.38216 15.4999C5.95359 14.0714 4.57264 12.4999 3.04883 11.738L5.19168 19.3571H7.76311L11.6203 10.7856H9.04883L6.62026 16.738Z" fill="#3C58BF"/>
<path d="M6.62026 16.738L6.38216 15.4999C5.95359 14.0714 4.57264 12.4999 3.04883 11.738L5.19168 19.3571H7.76311L11.6203 10.7856H9.52502L6.62026 16.738Z" fill="#293688"/>
<path d="M0 10.7383L0.428571 10.8335C3.47619 11.5478 5.57143 13.3573 6.38095 15.5002L5.52381 11.4526C5.38095 10.8811 4.95238 10.7383 4.42857 10.7383H0Z" fill="#FFBC00"/>
<path d="M0 10.7383C3.04762 11.4526 5.57143 13.3097 6.38095 15.4526L5.57143 12.0716C5.42857 11.5002 4.95238 11.1669 4.42857 11.1669L0 10.7383Z" fill="#F7981D"/>
<path d="M0 10.7383C3.04762 11.4526 5.57143 13.3097 6.38095 15.4526L5.80952 13.5954C5.66667 13.024 5.47619 12.4526 4.80952 12.2145L0 10.7383Z" fill="#ED7C00"/>
<path d="M9.00046 16.4526L7.38142 14.8335L6.61951 16.6431L6.42904 15.4526C6.00046 14.024 4.61951 12.4526 3.0957 11.6907L5.23856 19.3097H7.80999L9.00046 16.4526Z" fill="#051244"/>
<path d="M13.4286 19.3096L11.381 17.2144L11 19.3096H13.4286Z" fill="#051244"/>
<path d="M18.9046 16.3574C19.0951 16.5479 19.1903 16.6908 19.1427 16.8812C19.1427 17.4527 18.3808 17.7384 17.7141 17.7384C16.7617 17.7384 16.2379 17.5955 15.4284 17.2622L15.0951 17.1193L14.7617 19.0717C15.3331 19.3098 16.3808 19.5479 17.476 19.5479C18.9998 19.5479 20.2379 19.1193 20.9522 18.3574L18.9046 16.3574Z" fill="#051244"/>
<path d="M21.668 19.3099H23.9061L24.3823 17.8813H27.4299L27.7156 19.3099H30.0013L29.1918 15.8337L26.3346 13.0718L26.4775 13.8337C26.4775 13.8337 26.9537 15.9765 27.0489 16.4527H25.0489C25.2394 15.9765 26.0013 13.9289 26.0013 13.9289C26.0013 13.9289 26.1918 13.4051 26.3346 13.0718" fill="#051244"/>
</g>
<defs>
<clipPath id="clip0">
<rect width="30" height="30" fill="white"/>
</clipPath>
</defs>
</svg>
