<svg width="17" height="17" viewBox="0 0 17 17" fill="none" xmlns="http://www.w3.org/2000/svg">
<g opacity="0.4">
<path d="M7.82979 1.6933V6.137C7.82979 7.072 7.07097 7.82979 6.137 7.82979H1.69279C0.758818 7.82979 0 7.072 0 6.137V1.6933C0 0.758303 0.758818 0 1.69279 0H6.137C7.07252 0 7.82979 0.758303 7.82979 1.6933ZM15.3072 0H10.863C9.92903 0 9.17021 0.758303 9.17021 1.6933V6.137C9.17021 7.072 9.92903 7.82979 10.863 7.82979H15.3072C16.2412 7.82979 17 7.072 17 6.137V1.6933C17 0.758303 16.2412 0 15.3072 0ZM6.137 9.17021H1.69279C0.758818 9.17021 0 9.92748 0 10.863V15.3072C0 16.2412 0.758818 17 1.69279 17H6.137C7.07097 17 7.82979 16.2412 7.82979 15.3072V10.863C7.82979 9.92748 7.07252 9.17021 6.137 9.17021ZM15.3072 9.17021H10.863C9.92903 9.17021 9.17021 9.928 9.17021 10.863V15.3072C9.17021 16.2412 9.92903 17 10.863 17H15.3072C16.2412 17 17 16.2412 17 15.3072V10.863C17 9.92748 16.2412 9.17021 15.3072 9.17021Z" fill="#0D0D0D"/>
</g>
</svg>
