<svg width="62" height="63" viewBox="0 0 62 63" fill="none" xmlns="http://www.w3.org/2000/svg">
<g opacity="0.2">
<path d="M35.432 1.77353C33.1276 1.77353 31.9748 3.72189 31.9748 5.78635L31.9675 14.5437H1.93506V32.1563C5.32932 28.799 9.99385 26.7237 15.1367 26.7237C25.922 26.7237 34.7001 36.2083 33.8481 46.9486H62V1.77353H35.432Z" fill="black"/>
<path d="M15.1367 30.3519C6.90029 30.3519 0 37.2326 0 45.4695C0 53.8048 6.79094 60.5872 15.1367 60.5872C23.3745 60.5872 30.2734 53.6976 30.2734 45.4695C30.2734 37.1343 23.4825 30.3519 15.1367 30.3519ZM25.5254 47.2836H16.9531V55.8451H13.3203V47.2836H4.74809V43.6554H13.3203V35.094H16.9531V43.6554H25.5254V47.2836Z" fill="black"/>
<path d="M28.3421 5.78636L28.3372 10.9155H1.94727C2.16645 8.52689 5.37422 5.78636 9.21047 5.78636H28.3421Z" fill="black"/>
</g>
</svg>
